<svg width="663" height="482" viewBox="0 0 663 482" fill="none" xmlns="http://www.w3.org/2000/svg">
<path d="M111.967 9.51837C14.3372 39.9135 -23.0451 130.247 14.1349 229.879C51.315 329.51 293.315 404.072 331.5 482C369.685 404.072 611.685 329.51 648.865 229.879C686.045 130.247 648.663 39.9135 551.033 9.51838C452.024 -21.3061 349.502 27.0108 331.5 93.095C313.498 27.0108 210.976 -21.3061 111.967 9.51837Z" fill="#373126"/>
<path d="M161.078 60.411C85.1502 84.0768 56.0776 154.411 84.9928 231.984C113.908 309.557 302.113 367.611 331.81 428.286C361.507 367.611 549.712 309.557 578.627 231.984C607.543 154.411 578.47 84.0768 502.543 60.411C425.543 36.411 345.81 74.0307 331.81 125.484C317.81 74.0307 238.078 36.411 161.078 60.411Z" fill="#8F4B1A"/>
<rect x="55" y="66.0665" width="25" height="25" transform="rotate(-46.2746 55 66.0665)" fill="#FFD600"/>
<rect x="65.1733" y="58.1733" width="15" height="15" fill="#FFF500"/>
<rect x="66.1196" y="65.7315" width="10" height="10" transform="rotate(-50.726 66.1196 65.7315)" fill="#FFFDD3"/>
<rect x="565" y="61.0665" width="25" height="25" transform="rotate(-46.2746 565 61.0665)" fill="#FFD600"/>
<rect x="575.173" y="53.1733" width="15" height="15" fill="#FFF500"/>
<rect x="576.12" y="60.7315" width="10" height="10" transform="rotate(-50.726 576.12 60.7315)" fill="#FFFDD3"/>
<rect x="600" y="122.334" width="21.2185" height="21.2185" transform="rotate(-46.2746 600 122.334)" fill="#FFD600"/>
<rect x="608.634" y="115.634" width="12.7311" height="12.7311" fill="#FFF500"/>
<rect x="609.438" y="122.049" width="8.48738" height="8.48738" transform="rotate(-50.726 609.438 122.049)" fill="#FFFDD3"/>
<rect x="25" y="127.334" width="21.2185" height="21.2185" transform="rotate(-46.2746 25 127.334)" fill="#FFD600"/>
<rect x="33.6345" y="120.634" width="12.7311" height="12.7311" fill="#FFF500"/>
<rect x="34.4376" y="127.049" width="8.48738" height="8.48738" transform="rotate(-50.726 34.4376 127.049)" fill="#FFFDD3"/>
<rect x="40" y="189.222" width="14.1456" height="14.1456" transform="rotate(-46.2746 40 189.222)" fill="#FFD600"/>
<rect x="45.7563" y="184.756" width="8.48738" height="8.48738" fill="#FFF500"/>
<rect x="46.2917" y="189.033" width="5.65825" height="5.65825" transform="rotate(-50.726 46.2917 189.033)" fill="#FFFDD3"/>
<rect x="15" y="163.222" width="14.1456" height="14.1456" transform="rotate(-46.2746 15 163.222)" fill="#FFD600"/>
<rect x="20.7563" y="158.756" width="8.48738" height="8.48738" fill="#FFF500"/>
<rect x="21.2917" y="163.033" width="5.65825" height="5.65825" transform="rotate(-50.726 21.2917 163.033)" fill="#FFFDD3"/>
<rect x="600" y="189.222" width="14.1456" height="14.1456" transform="rotate(-46.2746 600 189.222)" fill="#FFD600"/>
<rect x="605.756" y="184.756" width="8.48738" height="8.48738" fill="#FFF500"/>
<rect x="606.292" y="189.033" width="5.65825" height="5.65825" transform="rotate(-50.726 606.292 189.033)" fill="#FFFDD3"/>
<rect x="630" y="166.222" width="14.1456" height="14.1456" transform="rotate(-46.2746 630 166.222)" fill="#FFD600"/>
<rect x="635.756" y="161.756" width="8.48738" height="8.48738" fill="#FFF500"/>
<rect x="636.292" y="166.033" width="5.65825" height="5.65825" transform="rotate(-50.726 636.292 166.033)" fill="#FFFDD3"/>
<rect x="582" y="248.667" width="10.6092" height="10.6092" transform="rotate(-46.2746 582 248.667)" fill="#FFD600"/>
<rect x="586.317" y="245.317" width="6.36554" height="6.36554" fill="#FFF500"/>
<rect x="586.719" y="248.525" width="4.24369" height="4.24369" transform="rotate(-50.726 586.719 248.525)" fill="#FFFDD3"/>
<rect x="610" y="225.667" width="10.6092" height="10.6092" transform="rotate(-46.2746 610 225.667)" fill="#FFD600"/>
<rect x="614.317" y="222.317" width="6.36554" height="6.36554" fill="#FFF500"/>
<rect x="614.719" y="225.525" width="4.24369" height="4.24369" transform="rotate(-50.726 614.719 225.525)" fill="#FFFDD3"/>
<rect x="571" y="288.667" width="10.6092" height="10.6092" transform="rotate(-46.2746 571 288.667)" fill="#FFD600"/>
<rect x="575.317" y="285.317" width="6.36554" height="6.36554" fill="#FFF500"/>
<rect x="575.719" y="288.525" width="4.24369" height="4.24369" transform="rotate(-50.726 575.719 288.525)" fill="#FFFDD3"/>
<rect width="10.6092" height="10.6092" transform="matrix(-0.691202 -0.722661 -0.722661 0.691202 95 259.667)" fill="#FFD600"/>
<rect width="6.36554" height="6.36554" transform="matrix(-1 0 0 1 90.6828 256.317)" fill="#FFF500"/>
<rect width="4.24369" height="4.24369" transform="matrix(-0.63303 -0.774127 -0.774127 0.63303 90.2812 259.525)" fill="#FFFDD3"/>
<rect width="10.6092" height="10.6092" transform="matrix(-0.691202 -0.722661 -0.722661 0.691202 67 236.667)" fill="#FFD600"/>
<rect width="6.36554" height="6.36554" transform="matrix(-1 0 0 1 62.6827 233.317)" fill="#FFF500"/>
<rect width="4.24369" height="4.24369" transform="matrix(-0.63303 -0.774127 -0.774127 0.63303 62.2812 236.525)" fill="#FFFDD3"/>
<rect width="10.6092" height="10.6092" transform="matrix(-0.691202 -0.722661 -0.722661 0.691202 106 299.667)" fill="#FFD600"/>
<rect width="6.36554" height="6.36554" transform="matrix(-1 0 0 1 101.683 296.317)" fill="#FFF500"/>
<rect width="4.24369" height="4.24369" transform="matrix(-0.63303 -0.774127 -0.774127 0.63303 101.281 299.525)" fill="#FFFDD3"/>
</svg>
